Hermit-Regular.ufo
<glyph name="exclam" format="1">
  <advance width="618"/>
  <unicode hex="0021"/>
  <note>
    exclam
  </note>
  <outline>
    <contour>
      <point x="354" y="250" type="line"/>
      <point x="354" y="750" type="line"/>
      <point x="264" y="750" type="line"/>
      <point x="264" y="250" type="line"/>
    </contour>
    <contour>
      <point x="354" y="-90"/>
      <point x="399" y="-45"/>
      <point x="399" y="0" type="curve" smooth="yes"/>
      <point x="399" y="45"/>
      <point x="354" y="90"/>
      <point x="309" y="90" type="curve" smooth="yes"/>
      <point x="264" y="90"/>
      <point x="219" y="45"/>
      <point x="219" y="0" type="curve" smooth="yes"/>
      <point x="219" y="-45"/>
      <point x="264" y="-90"/>
      <point x="309" y="-90" type="curve" smooth="yes"/>
    </contour>
  </outline>
</glyph>
<glyph name="percent" format="1">
  <advance width="618"/>
  <unicode hex="0025"/>
  <note>
    percent
  </note>
  <outline>
    <contour>
      <point x="96" y="0" type="line"/>
      <point x="618" y="750" type="line"/>
      <point x="522" y="750" type="line"/>
      <point x="0" y="0" type="line"/>
    </contour>
    <contour>
      <point x="617" y="0"/>
      <point x="618" y="151"/>
      <point x="618" y="155" type="curve"/>
      <point x="618" y="155"/>
      <point x="617" y="311"/>
      <point x="466" y="311" type="curve" smooth="yes"/>
      <point x="317" y="311"/>
      <point x="316" y="159"/>
      <point x="316" y="155" type="curve" smooth="yes"/>
      <point x="316" y="151"/>
      <point x="317" y="0"/>
      <point x="466" y="0" type="curve" smooth="yes"/>
    </contour>
    <contour>
      <point x="400" y="80"/>
      <point x="396" y="140"/>
      <point x="396" y="153" type="curve" smooth="yes"/>
      <point x="396" y="158" type="line" smooth="yes"/>
      <point x="396" y="171"/>
      <point x="400" y="231"/>
      <point x="466" y="231" type="curve" smooth="yes"/>
      <point x="532" y="231"/>
      <point x="536" y="171"/>
      <point x="536" y="158" type="curve" smooth="yes"/>
      <point x="536" y="153" type="line" smooth="yes"/>
      <point x="536" y="140"/>
      <point x="532" y="80"/>
      <point x="466" y="80" type="curve" smooth="yes"/>
    </contour>
    <contour>
      <point x="300" y="440"/>
      <point x="300" y="591"/>
      <point x="300" y="595" type="curve"/>
      <point x="300" y="595"/>
      <point x="300" y="750"/>
      <point x="150" y="750" type="curve" smooth="yes"/>
      <point x="0" y="750"/>
      <point x="0" y="595"/>
      <point x="0" y="595" type="curve" smooth="yes"/>
      <point x="0" y="595"/>
      <point x="0" y="440"/>
      <point x="150" y="440" type="curve" smooth="yes"/>
    </contour>
    <contour>
      <point x="84" y="519"/>
      <point x="80" y="579"/>
      <point x="80" y="592" type="curve" smooth="yes"/>
      <point x="80" y="597" type="line" smooth="yes"/>
      <point x="80" y="610"/>
      <point x="84" y="671"/>
      <point x="150" y="671" type="curve" smooth="yes"/>
      <point x="216" y="671"/>
      <point x="220" y="610"/>
      <point x="220" y="597" type="curve" smooth="yes"/>
      <point x="220" y="592" type="line" smooth="yes"/>
      <point x="220" y="579"/>
      <point x="216" y="519"/>
      <point x="150" y="519" type="curve" smooth="yes"/>
    </contour>
  </outline>
</glyph>
<glyph name="parenleft" format="1">
  <advance width="618"/>
  <unicode hex="0028"/>
  <note>
    parenleft
  </note>
  <outline>
    <contour>
      <point x="501" y="0" type="line"/>
      <point x="209" y="0"/>
      <point x="208" y="326"/>
      <point x="208" y="330" type="curve" smooth="yes"/>
      <point x="208" y="334"/>
      <point x="209" y="660"/>
      <point x="501" y="660" type="curve"/>
      <point x="501" y="750" type="line"/>
      <point x="118" y="750"/>
      <point x="117" y="330"/>
      <point x="117" y="330" type="curve" smooth="yes"/>
      <point x="117" y="330"/>
      <point x="118" y="-90"/>
      <point x="501" y="-90" type="curve"/>
    </contour>
  </outline>
</glyph>
<glyph name="parenright" format="1">
  <advance width="618"/>
  <unicode hex="0029"/>
  <note>
    parenright
  </note>
  <outline>
    <contour>
      <point x="500" y="-90"/>
      <point x="501" y="330"/>
      <point x="501" y="330" type="curve" smooth="yes"/>
      <point x="501" y="330"/>
      <point x="500" y="750"/>
      <point x="117" y="750" type="curve"/>
      <point x="117" y="660" type="line"/>
      <point x="409" y="660"/>
      <point x="410" y="334"/>
      <point x="410" y="330" type="curve" smooth="yes"/>
      <point x="410" y="326"/>
      <point x="409" y="0"/>
      <point x="117" y="0" type="curve"/>
      <point x="117" y="-90" type="line"/>
    </contour>
  </outline>
</glyph>
<glyph name="one" format="1">
  <advance width="618"/>
  <unicode hex="0031"/>
  <note>
    one
  </note>
  <outline>
    <contour>
      <point x="445" y="0" type="line"/>
      <point x="445" y="750" type="line"/>
      <point x="333" y="750" type="line"/>
      <point x="78" y="396" type="line"/>
      <point x="188" y="396" type="line"/>
      <point x="355" y="625" type="line"/>
      <point x="355" y="0" type="line"/>
    </contour>
  </outline>
</glyph>
<glyph name="colon" format="1">
  <advance width="618"/>
  <unicode hex="003A"/>
  <note>
    colon
  </note>
  <outline>
    <contour>
      <point x="354" y="338"/>
      <point x="399" y="383"/>
      <point x="399" y="428" type="curve" smooth="yes"/>
      <point x="399" y="473"/>
      <point x="354" y="518"/>
      <point x="309" y="518" type="curve" smooth="yes"/>
      <point x="264" y="518"/>
      <point x="219" y="473"/>
      <point x="219" y="428" type="curve" smooth="yes"/>
      <point x="219" y="383"/>
      <point x="264" y="338"/>
      <point x="309" y="338" type="curve" smooth="yes"/>
    </contour>
    <contour>
      <point x="354" y="0"/>
      <point x="399" y="45"/>
      <point x="399" y="90" type="curve" smooth="yes"/>
      <point x="399" y="135"/>
      <point x="354" y="180"/>
      <point x="309" y="180" type="curve" smooth="yes"/>
      <point x="264" y="180"/>
      <point x="219" y="135"/>
      <point x="219" y="90" type="curve" smooth="yes"/>
      <point x="219" y="45"/>
      <point x="264" y="0"/>
      <point x="309" y="0" type="curve" smooth="yes"/>
    </contour>
  </outline>
</glyph>
<glyph name="at" format="1">
  <advance width="618"/>
  <unicode hex="0040"/>
  <note>
    at
  </note>
  <outline>
    <contour>
      <point x="399" y="0"/>
      <point x="540" y="0"/>
      <point x="540" y="160" type="curve"/>
      <point x="450" y="160" type="line"/>
      <point x="450" y="90"/>
      <point x="357" y="90"/>
      <point x="311" y="90" type="curve" smooth="yes"/>
      <point x="309" y="90" type="line" smooth="yes"/>
      <point x="219" y="90"/>
      <point x="168" y="160"/>
      <point x="168" y="375" type="curve" smooth="yes"/>
      <point x="168" y="590"/>
      <point x="219" y="660"/>
      <point x="309" y="660" type="curve" smooth="yes"/>
      <point x="311" y="660" type="line" smooth="yes"/>
      <point x="357" y="660"/>
      <point x="450" y="660"/>
      <point x="450" y="590" type="curve" smooth="yes"/>
      <point x="450" y="522" type="line"/>
      <point x="429" y="522" type="line" smooth="yes"/>
      <point x="289" y="522"/>
      <point x="219" y="501"/>
      <point x="219" y="375" type="curve" smooth="yes"/>
      <point x="219" y="263"/>
      <point x="289" y="228"/>
      <point x="429" y="228" type="curve" smooth="yes"/>
      <point x="540" y="228" type="line"/>
      <point x="540" y="590" type="line" smooth="yes"/>
      <point x="540" y="750"/>
      <point x="399" y="750"/>
      <point x="309" y="750" type="curve" smooth="yes"/>
      <point x="169" y="750"/>
      <point x="78" y="660"/>
      <point x="78" y="375" type="curve" smooth="yes"/>
      <point x="78" y="90"/>
      <point x="169" y="0"/>
      <point x="309" y="0" type="curve" smooth="yes"/>
    </contour>
    <contour>
      <point x="354" y="318"/>
      <point x="309" y="319"/>
      <point x="309" y="375" type="curve" smooth="yes"/>
      <point x="309" y="431"/>
      <point x="367" y="432"/>
      <point x="423" y="432" type="curve" smooth="yes"/>
      <point x="450" y="432" type="line"/>
      <point x="450" y="318" type="line"/>
      <point x="426" y="318" type="line" smooth="yes"/>
    </contour>
  </outline>
</glyph>
<glyph name="B" format="1">
  <advance width="618"/>
  <unicode hex="0042"/>
  <note>
    B
  </note>
  <outline>
    <contour>
      <point x="309" y="0" type="line" smooth="yes"/>
      <point x="539" y="0"/>
      <point x="540" y="238"/>
      <point x="540" y="238" type="curve" smooth="yes"/>
      <point x="540" y="238"/>
      <point x="539" y="367"/>
      <point x="433" y="425" type="curve"/>
      <point x="495" y="459"/>
      <point x="495" y="556"/>
      <point x="495" y="556" type="curve" smooth="yes"/>
      <point x="495" y="556"/>
      <point x="495" y="750"/>
      <point x="309" y="750" type="curve" smooth="yes"/>
      <point x="78" y="750" type="line"/>
      <point x="78" y="0" type="line"/>
    </contour>
    <contour>
      <point x="168" y="386" type="line"/>
      <point x="309" y="386" type="line" smooth="yes"/>
      <point x="449" y="386"/>
      <point x="450" y="238"/>
      <point x="450" y="238" type="curve" smooth="yes"/>
      <point x="450" y="238"/>
      <point x="449" y="90"/>
      <point x="309" y="90" type="curve" smooth="yes"/>
      <point x="168" y="90" type="line"/>
    </contour>
    <contour>
      <point x="168" y="660" type="line"/>
      <point x="309" y="660" type="line" smooth="yes"/>
      <point x="405" y="660"/>
      <point x="405" y="556"/>
      <point x="405" y="556" type="curve" smooth="yes"/>
      <point x="405" y="556"/>
      <point x="405" y="453"/>
      <point x="309" y="453" type="curve" smooth="yes"/>
      <point x="168" y="453" type="line"/>
    </contour>
    <contour>
      <point x="309" y="750" type="move" name="top"/>
    </contour>
    <contour>
      <point x="309" y="0" type="move" name="bottom"/>
    </contour>
  </outline>
</glyph>
<glyph name="D" format="1">
  <advance width="618"/>
  <unicode hex="0044"/>
  <note>
    D
  </note>
  <outline>
    <contour>
      <point x="309" y="0" type="line" smooth="yes"/>
      <point x="539" y="0"/>
      <point x="540" y="375"/>
      <point x="540" y="375" type="curve" smooth="yes"/>
      <point x="540" y="375"/>
      <point x="539" y="750"/>
      <point x="309" y="750" type="curve" smooth="yes"/>
      <point x="78" y="750" type="line"/>
      <point x="78" y="0" type="line"/>
    </contour>
    <contour>
      <point x="168" y="660" type="line"/>
      <point x="309" y="660" type="line" smooth="yes"/>
      <point x="449" y="660"/>
      <point x="450" y="375"/>
      <point x="450" y="375" type="curve" smooth="yes"/>
      <point x="450" y="375"/>
      <point x="449" y="90"/>
      <point x="309" y="90" type="curve" smooth="yes"/>
      <point x="168" y="90" type="line"/>
    </contour>
    <contour>
      <point x="309" y="375" type="move" name="center"/>
    </contour>
    <contour>
      <point x="309" y="0" type="move" name="bottom"/>
    </contour>
    <contour>
      <point x="309" y="750" type="move" name="top"/>
    </contour>
  </outline>
</glyph>
<glyph name="H" format="1">
  <advance width="618"/>
  <unicode hex="0048"/>
  <note>
    H
  </note>
  <outline>
    <contour>
      <point x="168" y="0" type="line"/>
      <point x="168" y="330" type="line"/>
      <point x="450" y="330" type="line"/>
      <point x="450" y="0" type="line"/>
      <point x="540" y="0" type="line"/>
      <point x="540" y="750" type="line"/>
      <point x="450" y="750" type="line"/>
      <point x="450" y="420" type="line"/>
      <point x="168" y="420" type="line"/>
      <point x="168" y="750" type="line"/>
      <point x="78" y="750" type="line"/>
      <point x="78" y="0" type="line"/>
    </contour>
    <contour>
      <point x="309" y="0" type="move" name="bottom"/>
    </contour>
    <contour>
      <point x="309" y="750" type="move" name="top"/>
    </contour>
    <contour>
      <point x="20" y="750" type="move" name="topleft"/>
    </contour>
    <contour>
      <point x="309" y="375" type="move" name="center"/>
    </contour>
  </outline>
</glyph>
<glyph name="T" format="1">
  <advance width="618"/>
  <unicode hex="0054"/>
  <note>
    T
  </note>
  <outline>
    <contour>
      <point x="354" y="0" type="line"/>
      <point x="354" y="670" type="line"/>
      <point x="540" y="670" type="line"/>
      <point x="540" y="750" type="line"/>
      <point x="78" y="750" type="line"/>
      <point x="78" y="670" type="line"/>
      <point x="264" y="670" type="line"/>
      <point x="264" y="0" type="line"/>
    </contour>
    <contour>
      <point x="309" y="70" type="move" name="center"/>
    </contour>
    <contour>
      <point x="309" y="0" type="move" name="bottom"/>
    </contour>
    <contour>
      <point x="309" y="750" type="move" name="top"/>
    </contour>
  </outline>
</glyph>
<glyph name="bracketleft" format="1">
  <advance width="618"/>
  <unicode hex="005B"/>
  <note>
    bracketleft
  </note>
  <outline>
    <contour>
      <point x="501" y="-90" type="line"/>
      <point x="501" y="0" type="line"/>
      <point x="207" y="0" type="line"/>
      <point x="207" y="660" type="line"/>
      <point x="501" y="660" type="line"/>
      <point x="501" y="750" type="line"/>
      <point x="117" y="750" type="line"/>
      <point x="117" y="-90" type="line"/>
    </contour>
  </outline>
</glyph>
<glyph name="b" format="1">
  <advance width="618"/>
  <unicode hex="0062"/>
  <note>
    b
  </note>
  <outline>
    <contour>
      <point x="309" y="0" type="line" smooth="yes"/>
      <point x="539" y="0"/>
      <point x="540" y="250"/>
      <point x="540" y="250" type="curve" smooth="yes"/>
      <point x="540" y="250"/>
      <point x="539" y="500"/>
      <point x="309" y="500" type="curve" smooth="yes"/>
      <point x="168" y="500" type="line"/>
      <point x="168" y="750" type="line"/>
      <point x="78" y="750" type="line"/>
      <point x="78" y="0" type="line"/>
    </contour>
    <contour>
      <point x="168" y="410" type="line"/>
      <point x="309" y="410" type="line" smooth="yes"/>
      <point x="449" y="410"/>
      <point x="450" y="250"/>
      <point x="450" y="250" type="curve" smooth="yes"/>
      <point x="450" y="250"/>
      <point x="449" y="90"/>
      <point x="309" y="90" type="curve" smooth="yes"/>
      <point x="168" y="90" type="line"/>
    </contour>
    <contour>
      <point x="309" y="500" type="move" name="top"/>
    </contour>
    <contour>
      <point x="309" y="0" type="move" name="bottom"/>
    </contour>
  </outline>
</glyph>
<glyph name="c" format="1">
  <advance width="618"/>
  <unicode hex="0063"/>
  <note>
    c
  </note>
  <outline>
    <contour>
      <point x="399" y="0"/>
      <point x="540" y="0"/>
      <point x="540" y="160" type="curve"/>
      <point x="450" y="160" type="line"/>
      <point x="450" y="90"/>
      <point x="357" y="90"/>
      <point x="311" y="90" type="curve" smooth="yes"/>
      <point x="309" y="90" type="line" smooth="yes"/>
      <point x="219" y="90"/>
      <point x="168" y="160"/>
      <point x="168" y="250" type="curve" smooth="yes"/>
      <point x="168" y="340"/>
      <point x="219" y="410"/>
      <point x="309" y="410" type="curve" smooth="yes"/>
      <point x="311" y="410" type="line" smooth="yes"/>
      <point x="357" y="410"/>
      <point x="450" y="410"/>
      <point x="450" y="340" type="curve"/>
      <point x="540" y="340" type="line"/>
      <point x="540" y="500"/>
      <point x="399" y="500"/>
      <point x="309" y="500" type="curve" smooth="yes"/>
      <point x="169" y="500"/>
      <point x="78" y="410"/>
      <point x="78" y="250" type="curve" smooth="yes"/>
      <point x="78" y="90"/>
      <point x="169" y="0"/>
      <point x="309" y="0" type="curve" smooth="yes"/>
    </contour>
    <contour>
      <point x="309" y="500" type="move" name="top"/>
    </contour>
    <contour>
      <point x="309" y="0" type="move" name="bottom"/>
    </contour>
  </outline>
</glyph>
<glyph name="e" format="1">
  <advance width="618"/>
  <unicode hex="0065"/>
  <note>
    e
  </note>
  <outline>
    <contour>
      <point x="495" y="0" type="line"/>
      <point x="495" y="90" type="line"/>
      <point x="309" y="90" type="line" smooth="yes"/>
      <point x="219" y="90"/>
      <point x="168" y="90"/>
      <point x="168" y="205" type="curve"/>
      <point x="540" y="205" type="line"/>
      <point x="540" y="250" type="line" smooth="yes"/>
      <point x="540" y="500"/>
      <point x="449" y="500"/>
      <point x="309" y="500" type="curve" smooth="yes"/>
      <point x="169" y="500"/>
      <point x="78" y="500"/>
      <point x="78" y="250" type="curve" smooth="yes"/>
      <point x="78" y="0"/>
      <point x="169" y="0"/>
      <point x="309" y="0" type="curve" smooth="yes"/>
    </contour>
    <contour>
      <point x="168" y="410"/>
      <point x="219" y="410"/>
      <point x="309" y="410" type="curve" smooth="yes"/>
      <point x="399" y="410"/>
      <point x="450" y="410"/>
      <point x="450" y="295" type="curve"/>
      <point x="168" y="295" type="line"/>
    </contour>
    <contour>
      <point x="494" y="0" type="move" name="ogonek"/>
    </contour>
    <contour>
      <point x="309" y="0" type="move" name="bottom"/>
    </contour>
    <contour>
      <point x="309" y="500" type="move" name="top"/>
    </contour>
  </outline>
</glyph>
<glyph name="f" format="1">
  <advance width="618"/>
  <unicode hex="0066"/>
  <note>
    f
  </note>
  <outline>
    <contour>
      <point x="315" y="0" type="line"/>
      <point x="315" y="380" type="line"/>
      <point x="484" y="380" type="line"/>
      <point x="484" y="470" type="line"/>
      <point x="315" y="470" type="line"/>
      <point x="315" y="500" type="line" smooth="yes"/>
      <point x="315" y="630"/>
      <point x="343" y="660"/>
      <point x="420" y="660" type="curve"/>
      <point x="533" y="660" type="line"/>
      <point x="533" y="750" type="line"/>
      <point x="420" y="750" type="line"/>
      <point x="262" y="750"/>
      <point x="215" y="684"/>
      <point x="215" y="501" type="curve" smooth="yes"/>
      <point x="215" y="470" type="line"/>
      <point x="125" y="470" type="line"/>
      <point x="125" y="380" type="line"/>
      <point x="215" y="380" type="line"/>
      <point x="215" y="0" type="line"/>
    </contour>
    <contour>
      <point x="309" y="500" type="move" name="top"/>
    </contour>
    <contour>
      <point x="309" y="0" type="move" name="bottom"/>
    </contour>
  </outline>
</glyph>
<glyph name="h" format="1">
  <advance width="618"/>
  <unicode hex="0068"/>
  <note>
    h
  </note>
  <outline>
    <contour>
      <point x="168" y="0" type="line"/>
      <point x="168" y="410" type="line"/>
      <point x="309" y="410" type="line" smooth="yes"/>
      <point x="449" y="410"/>
      <point x="450" y="250"/>
      <point x="450" y="250" type="curve"/>
      <point x="450" y="0" type="line"/>
      <point x="540" y="0" type="line"/>
      <point x="540" y="250" type="line"/>
      <point x="540" y="250"/>
      <point x="539" y="500"/>
      <point x="309" y="500" type="curve" smooth="yes"/>
      <point x="168" y="500" type="line"/>
      <point x="168" y="750" type="line"/>
      <point x="78" y="750" type="line"/>
      <point x="78" y="0" type="line"/>
    </contour>
    <contour>
      <point x="154" y="250" type="move" name="center"/>
    </contour>
    <contour>
      <point x="309" y="0" type="move" name="bottom"/>
    </contour>
    <contour>
      <point x="309" y="500" type="move" name="top"/>
    </contour>
  </outline>
</glyph>
<glyph name="o" format="1">
  <advance width="618"/>
  <unicode hex="006F"/>
  <note>
    o
  </note>
  <outline>
    <contour>
      <point x="449" y="0"/>
      <point x="540" y="0"/>
      <point x="540" y="250" type="curve" smooth="yes"/>
      <point x="540" y="500"/>
      <point x="449" y="500"/>
      <point x="309" y="500" type="curve" smooth="yes"/>
      <point x="169" y="500"/>
      <point x="78" y="500"/>
      <point x="78" y="250" type="curve" smooth="yes"/>
      <point x="78" y="0"/>
      <point x="169" y="0"/>
      <point x="309" y="0" type="curve" smooth="yes"/>
    </contour>
    <contour>
      <point x="219" y="90"/>
      <point x="168" y="90"/>
      <point x="168" y="250" type="curve" smooth="yes"/>
      <point x="168" y="410"/>
      <point x="219" y="410"/>
      <point x="309" y="410" type="curve" smooth="yes"/>
      <point x="399" y="410"/>
      <point x="450" y="410"/>
      <point x="450" y="250" type="curve" smooth="yes"/>
      <point x="450" y="90"/>
      <point x="399" y="90"/>
      <point x="309" y="90" type="curve" smooth="yes"/>
    </contour>
    <contour>
      <point x="309" y="0" type="move" name="bottom"/>
    </contour>
    <contour>
      <point x="555" y="10" type="move" name="ogonek"/>
    </contour>
    <contour>
      <point x="309" y="500" type="move" name="top"/>
    </contour>
    <contour>
      <point x="597" y="500" type="move" name="topright"/>
    </contour>
    <contour>
      <point x="309" y="250" type="move" name="center"/>
    </contour>
  </outline>
</glyph>
<glyph name="t" format="1">
  <advance width="618"/>
  <unicode hex="0074"/>
  <note>
    t
  </note>
  <outline>
    <contour>
      <point x="490" y="0" type="line"/>
      <point x="490" y="90" type="line"/>
      <point x="251" y="90"/>
      <point x="218" y="124"/>
      <point x="218" y="250" type="curve" smooth="yes"/>
      <point x="218" y="410" type="line"/>
      <point x="490" y="410" type="line"/>
      <point x="490" y="500" type="line"/>
      <point x="218" y="500" type="line"/>
      <point x="218" y="750" type="line"/>
      <point x="118" y="750" type="line"/>
      <point x="118" y="250" type="line" smooth="yes"/>
      <point x="118" y="63"/>
      <point x="179" y="0"/>
      <point x="350" y="0" type="curve" smooth="yes"/>
    </contour>
    <contour>
      <point x="309" y="0" type="move" name="bottom"/>
    </contour>
    <contour>
      <point x="309" y="500" type="move" name="top"/>
    </contour>
    <contour>
      <point x="597" y="500" type="move" name="topright"/>
    </contour>
    <contour>
      <point x="309" y="250" type="move" name="center"/>
    </contour>
  </outline>
</glyph>
<glyph name="v" format="1">
  <advance width="618"/>
  <unicode hex="0076"/>
  <note>
    v
  </note>
  <outline>
    <contour>
      <point x="357" y="0" type="line"/>
      <point x="540" y="500" type="line"/>
      <point x="443" y="500" type="line"/>
      <point x="309" y="130" type="line"/>
      <point x="175" y="500" type="line"/>
      <point x="78" y="500" type="line"/>
      <point x="261" y="0" type="line"/>
    </contour>
    <contour>
      <point x="309" y="500" type="move" name="top"/>
    </contour>
    <contour>
      <point x="309" y="0" type="move" name="bottom"/>
    </contour>
  </outline>
</glyph>
<glyph name="w" format="1">
  <advance width="618"/>
  <unicode hex="0077"/>
  <note>
    w
  </note>
  <outline>
    <contour>
      <point x="226" y="0" type="line"/>
      <point x="309" y="238" type="line"/>
      <point x="392" y="0" type="line"/>
      <point x="483" y="0" type="line"/>
      <point x="540" y="500" type="line"/>
      <point x="449" y="500" type="line"/>
      <point x="416" y="207" type="line"/>
      <point x="354" y="385" type="line"/>
      <point x="264" y="385" type="line"/>
      <point x="202" y="207" type="line"/>
      <point x="169" y="500" type="line"/>
      <point x="78" y="500" type="line"/>
      <point x="135" y="0" type="line"/>
    </contour>
    <contour>
      <point x="309" y="500" type="move" name="top"/>
    </contour>
    <contour>
      <point x="309" y="0" type="move" name="bottom"/>
    </contour>
  </outline>
</glyph>
<glyph name="bar" format="1">
  <advance width="618"/>
  <unicode hex="007C"/>
  <note>
    bar
  </note>
  <outline>
    <contour>
      <point x="354" y="-90" type="line"/>
      <point x="354" y="750" type="line"/>
      <point x="264" y="750" type="line"/>
      <point x="264" y="-90" type="line"/>
    </contour>
  </outline>
</glyph>
<glyph name="asciitilde" format="1">
  <advance width="618"/>
  <unicode hex="007E"/>
  <note>
    asciitilde
  </note>
  <outline>
    <contour>
      <point x="538" y="240"/>
      <point x="540" y="375"/>
      <point x="540" y="375" type="curve"/>
      <point x="450" y="375" type="line"/>
      <point x="450" y="375"/>
      <point x="449" y="330"/>
      <point x="402" y="330" type="curve" smooth="yes"/>
      <point x="354" y="330"/>
      <point x="354" y="420"/>
      <point x="216" y="420" type="curve" smooth="yes"/>
      <point x="78" y="420"/>
      <point x="78" y="285"/>
      <point x="78" y="285" type="curve"/>
      <point x="168" y="285" type="line"/>
      <point x="168" y="285"/>
      <point x="168" y="330"/>
      <point x="215" y="330" type="curve" smooth="yes"/>
      <point x="264" y="330"/>
      <point x="264" y="240"/>
      <point x="402" y="240" type="curve" smooth="yes"/>
    </contour>
  </outline>
</glyph>
<glyph name="section" format="1">
  <advance width="618"/>
  <unicode hex="00A7"/>
  <note>
    section
  </note>
  <outline>
    <contour>
      <point x="449" y="-250"/>
      <point x="540" y="-250"/>
      <point x="540" y="-62" type="curve" smooth="yes"/>
      <point x="540" y="36"/>
      <point x="520" y="87"/>
      <point x="485" y="115" type="curve"/>
      <point x="517" y="143"/>
      <point x="540" y="186"/>
      <point x="540" y="250" type="curve" smooth="yes"/>
      <point x="540" y="442"/>
      <point x="449" y="442"/>
      <point x="309" y="442" type="curve" smooth="yes"/>
      <point x="219" y="442"/>
      <point x="168" y="442"/>
      <point x="168" y="562" type="curve" smooth="yes"/>
      <point x="168" y="660"/>
      <point x="219" y="660"/>
      <point x="309" y="660" type="curve" smooth="yes"/>
      <point x="399" y="660"/>
      <point x="450" y="653"/>
      <point x="450" y="570" type="curve"/>
      <point x="540" y="570" type="line"/>
      <point x="540" y="716"/>
      <point x="449" y="750"/>
      <point x="309" y="750" type="curve" smooth="yes"/>
      <point x="169" y="750"/>
      <point x="78" y="750"/>
      <point x="78" y="562" type="curve" smooth="yes"/>
      <point x="78" y="479"/>
      <point x="91" y="430"/>
      <point x="117" y="400" type="curve"/>
      <point x="91" y="372"/>
      <point x="78" y="325"/>
      <point x="78" y="250" type="curve" smooth="yes"/>
      <point x="78" y="58"/>
      <point x="169" y="58"/>
      <point x="309" y="58" type="curve" smooth="yes"/>
      <point x="399" y="58"/>
      <point x="450" y="58"/>
      <point x="450" y="-62" type="curve" smooth="yes"/>
      <point x="450" y="-160"/>
      <point x="399" y="-160"/>
      <point x="309" y="-160" type="curve" smooth="yes"/>
      <point x="219" y="-160"/>
      <point x="168" y="-153"/>
      <point x="168" y="-70" type="curve"/>
      <point x="78" y="-70" type="line"/>
      <point x="78" y="-216"/>
      <point x="169" y="-250"/>
      <point x="309" y="-250" type="curve" smooth="yes"/>
    </contour>
    <contour>
      <point x="219" y="146"/>
      <point x="168" y="146"/>
      <point x="168" y="250" type="curve" smooth="yes"/>
      <point x="168" y="352"/>
      <point x="219" y="352"/>
      <point x="309" y="352" type="curve" smooth="yes"/>
      <point x="399" y="352"/>
      <point x="450" y="352"/>
      <point x="450" y="250" type="curve" smooth="yes"/>
      <point x="450" y="163"/>
      <point x="399" y="146"/>
      <point x="309" y="146" type="curve" smooth="yes"/>
    </contour>
  </outline>
</glyph>
<glyph name="registered" format="1">
  <advance width="618"/>
  <unicode hex="00AE"/>
  <note>
    registered
  </note>
  <outline>
    <contour>
      <point x="617" y="0"/>
      <point x="618" y="308"/>
      <point x="618" y="308" type="curve" smooth="yes"/>
      <point x="618" y="308"/>
      <point x="617" y="617"/>
      <point x="309" y="617" type="curve" smooth="yes"/>
      <point x="1" y="617"/>
      <point x="0" y="308"/>
      <point x="0" y="308" type="curve" smooth="yes"/>
      <point x="0" y="308"/>
      <point x="1" y="0"/>
      <point x="309" y="0" type="curve" smooth="yes"/>
    </contour>
    <contour>
      <point x="85" y="84"/>
      <point x="84" y="308"/>
      <point x="84" y="308" type="curve" smooth="yes"/>
      <point x="84" y="308"/>
      <point x="85" y="534"/>
      <point x="309" y="534" type="curve" smooth="yes"/>
      <point x="533" y="534"/>
      <point x="535" y="308"/>
      <point x="535" y="308" type="curve" smooth="yes"/>
      <point x="535" y="308"/>
      <point x="533" y="84"/>
      <point x="309" y="84" type="curve" smooth="yes"/>
    </contour>
    <contour>
      <point x="220" y="142" type="line"/>
      <point x="220" y="281" type="line"/>
      <point x="293" y="281" type="line"/>
      <point x="391" y="142" type="line"/>
      <point x="452" y="142" type="line"/>
      <point x="351" y="284" type="line"/>
      <point x="369" y="284"/>
      <point x="452" y="320"/>
      <point x="452" y="382" type="curve"/>
      <point x="452" y="382"/>
      <point x="451" y="476"/>
      <point x="309" y="476" type="curve" smooth="yes"/>
      <point x="166" y="476" type="line"/>
      <point x="166" y="142" type="line"/>
    </contour>
    <contour>
      <point x="220" y="428" type="line"/>
      <point x="309" y="428" type="line" smooth="yes"/>
      <point x="397" y="428"/>
      <point x="397" y="382"/>
      <point x="397" y="382" type="curve" smooth="yes"/>
      <point x="397" y="382"/>
      <point x="397" y="336"/>
      <point x="309" y="336" type="curve" smooth="yes"/>
      <point x="220" y="336" type="line"/>
    </contour>
  </outline>
</glyph>
<glyph name="uni00B5" format="1">
  <advance width="618"/>
  <unicode hex="00B5"/>
  <note>
    uni00B5
  </note>
  <outline>
    <contour>
      <point x="168" y="-249" type="line"/>
      <point x="168" y="41" type="line"/>
      <point x="201" y="17"/>
      <point x="247" y="0"/>
      <point x="309" y="0" type="curve" smooth="yes"/>
      <point x="539" y="0"/>
      <point x="540" y="0"/>
      <point x="540" y="230" type="curve" smooth="yes"/>
      <point x="540" y="500" type="line"/>
      <point x="450" y="500" type="line"/>
      <point x="450" y="230" type="line" smooth="yes"/>
      <point x="450" y="90"/>
      <point x="449" y="90"/>
      <point x="309" y="90" type="curve" smooth="yes"/>
      <point x="169" y="90"/>
      <point x="168" y="230"/>
      <point x="168" y="230" type="curve"/>
      <point x="168" y="500" type="line"/>
      <point x="78" y="500" type="line"/>
      <point x="78" y="-249" type="line"/>
    </contour>
  </outline>
</glyph>
<glyph name="uni00B9" format="1">
  <advance width="618"/>
  <unicode hex="00B9"/>
  <note>
    uni00B9
  </note>
  <outline>
    <contour>
      <point x="434" y="300" type="line"/>
      <point x="434" y="750" type="line"/>
      <point x="330" y="750" type="line"/>
      <point x="144" y="539" type="line"/>
      <point x="254" y="539" type="line"/>
      <point x="345" y="646" type="line"/>
      <point x="345" y="300" type="line"/>
    </contour>
  </outline>
</glyph>
<glyph name="AE" format="1">
  <advance width="618"/>
  <unicode hex="00C6"/>
  <note>
    AE
  </note>
  <outline>
    <contour>
      <point x="170" y="0" type="line"/>
      <point x="220" y="205" type="line"/>
      <point x="309" y="205" type="line"/>
      <point x="309" y="0" type="line"/>
      <point x="540" y="0" type="line"/>
      <point x="540" y="90" type="line"/>
      <point x="399" y="90" type="line"/>
      <point x="399" y="330" type="line"/>
      <point x="495" y="330" type="line"/>
      <point x="495" y="420" type="line"/>
      <point x="399" y="420" type="line"/>
      <point x="399" y="660" type="line"/>
      <point x="540" y="660" type="line"/>
      <point x="540" y="750" type="line"/>
      <point x="260" y="750" type="line"/>
      <point x="78" y="0" type="line"/>
    </contour>
    <contour>
      <point x="309" y="564" type="line"/>
      <point x="309" y="295" type="line"/>
      <point x="242" y="295" type="line"/>
    </contour>
  </outline>
</glyph>
<glyph name="multiply" format="1">
  <advance width="618"/>
  <unicode hex="00D7"/>
  <note>
    multiply
  </note>
  <outline>
    <contour>
      <point x="309" y="392" type="line"/>
      <point x="453" y="245" type="line"/>
      <point x="516" y="308" type="line"/>
      <point x="372" y="455" type="line"/>
      <point x="516" y="602" type="line"/>
      <point x="453" y="665" type="line"/>
      <point x="309" y="518" type="line"/>
      <point x="165" y="665" type="line"/>
      <point x="102" y="602" type="line"/>
      <point x="246" y="455" type="line"/>
      <point x="102" y="308" type="line"/>
      <point x="165" y="245" type="line"/>
    </contour>
  </outline>
</glyph>
<glyph name="brevecomb" format="1">
  <advance width="618"/>
  <unicode hex="0306"/>
  <outline>
    <contour>
      <point x="459" y="545"/>
      <point x="499" y="670"/>
      <point x="500" y="750" type="curve"/>
      <point x="410" y="750" type="line"/>
      <point x="410" y="670"/>
      <point x="361" y="628"/>
      <point x="309" y="628" type="curve" smooth="yes"/>
      <point x="255" y="628"/>
      <point x="208" y="670"/>
      <point x="208" y="750" type="curve"/>
      <point x="117" y="750" type="line"/>
      <point x="117" y="674"/>
      <point x="159" y="545"/>
      <point x="309" y="545" type="curve" smooth="yes"/>
    </contour>
    <contour>
      <point x="308" y="500" type="move" name="_top"/>
    </contour>
  </outline>
</glyph>
<glyph name="H22073" format="1">
  <advance width="618"/>
  <unicode hex="25A1"/>
  <note>
    H22073
  </note>
  <outline>
    <contour>
      <point x="618" y="0" type="line"/>
      <point x="618" y="617" type="line"/>
      <point x="0" y="617" type="line"/>
      <point x="0" y="0" type="line"/>
    </contour>
    <contour>
      <point x="60" y="557" type="line"/>
      <point x="558" y="557" type="line"/>
      <point x="558" y="60" type="line"/>
      <point x="60" y="60" type="line"/>
    </contour>
  </outline>
</glyph>
<glyph name="uni25BF" format="1">
  <advance width="618"/>
  <unicode hex="25BF"/>
  <note>
    uni25BF
  </note>
  <outline>
    <contour>
      <point x="459" y="525" type="line"/>
      <point x="159" y="525" type="line"/>
      <point x="309" y="225" type="line"/>
    </contour>
    <contour>
      <point x="223" y="485" type="line"/>
      <point x="395" y="485" type="line"/>
      <point x="309" y="314" type="line"/>
    </contour>
  </outline>
</glyph>
<glyph name="uniE0A1" format="1">
  <advance width="618"/>
  <unicode hex="E0A1"/>
  <note>
    uniE0A1
  </note>
  <outline>
    <contour>
      <point x="276" y="-281" type="line"/>
      <point x="276" y="-165" type="line"/>
      <point x="265" y="65" type="line"/>
      <point x="407" y="-281" type="line"/>
      <point x="505" y="-281" type="line"/>
      <point x="505" y="252" type="line"/>
      <point x="412" y="252" type="line"/>
      <point x="412" y="158" type="line"/>
      <point x="424" y="-95" type="line"/>
      <point x="280" y="252" type="line"/>
      <point x="183" y="252" type="line"/>
      <point x="183" y="-281" type="line"/>
    </contour>
    <contour>
      <point x="409" y="300" type="line"/>
      <point x="409" y="378" type="line"/>
      <point x="203" y="378" type="line"/>
      <point x="203" y="832" type="line"/>
      <point x="113" y="832" type="line"/>
      <point x="113" y="300" type="line"/>
    </contour>
  </outline>
</glyph>
<glyph name="uniE0B2" format="1">
  <advance width="618"/>
  <unicode hex="E0B2"/>
  <note>
    uniE0B2
  </note>
  <outline>
    <contour>
      <point x="618" y="961" type="line"/>
      <point x="0" y="274" type="line"/>
      <point x="618" y="-414" type="line"/>
    </contour>
  </outline>
</glyph>
<glyph name=".notdef" format="1">
  <advance width="618"/>
  <note>
    .notdef
  </note>
  <outline>
    <contour>
      <point x="499" y="0" type="line"/>
      <point x="499" y="666" type="line"/>
      <point x="119" y="666" type="line"/>
      <point x="119" y="0" type="line"/>
    </contour>
    <contour>
      <point x="209" y="576" type="line"/>
      <point x="409" y="576" type="line"/>
      <point x="409" y="90" type="line"/>
      <point x="209" y="90" type="line"/>
    </contour>
  </outline>
</glyph>
